<?xml version="1.0" encoding="UTF-8"?>
<svg id="SVGDoc" width="62" height="28" xmlns="http://www.w3.org/2000/svg" version="1.1" xmlns:xlink="http://www.w3.org/1999/xlink" xmlns:avocode="https://avocode.com/" viewBox="0 0 62 28"><defs></defs><desc>Generated with Avocode.</desc><g><g><title>logo-arch</title><g><title>Arch</title><path d="M9.68895,0.5249h-2.40837l-4.23009,11.7846c-0.72046,2.0378 -1.0601,2.4083 -2.13049,2.6039v0.5043h4.12717v-0.5043c-1.41003,-0.2161 -1.61587,-0.669 -1.00863,-2.5628l0.66899,-2.0275h4.6109l0.76163,2.2643c0.55578,1.6879 0.29847,2.1304 -1.00864,2.326v0.5043h6.38198v-0.5043c0.10511,-0.01699 0.20113,-0.03464 0.28882,-0.05342c-0.85536,-0.21585 -1.20296,-0.67011 -1.74082,-2.17998zM15.9878,14.9134l0,0.5043l5.3527,0v-0.5043c-1.1321,-0.1853 -1.3174,-0.4014 -1.3174,-1.2145v-5.3931c0.4529,-0.42198 1.4924,-0.68957 2.5113,-0.68957c0.5867,0 1.1836,0.09263 1.4821,0.20584c0.1235,-0.24701 0.2367,-0.67928 0.2367,-1.12185c0,-0.9263 -0.4425,-1.66733 -1.3688,-1.66733c-1.0395,0 -1.9041,0.87483 -2.8921,2.92298l0.0103,-2.9024l-4.5492,0.55578v0.47344l0.5249,0.16467c0.5661,0.19556 0.6587,0.33965 0.6587,1.00864v6.5458c0,0.64617 -0.13247,0.89493 -0.89478,1.05818c0.07752,0.01956 0.1592,0.03716 0.24558,0.05342zM4.93396,9.60262l2.04815,-6.27824l2.0996,6.27824zM33.7229,13.8224v-0.5043c-0.5146,0.5043 -1.41,0.844 -2.4084,0.844c-2.0481,0 -3.7052,-1.6159 -3.7052,-4.44626c0,-2.35692 1.2351,-3.85958 3.098,-3.85958c0.5558,0 1.0498,0.1338 1.4409,0.38081c-0.0206,-0.01029 -0.0309,-0.01029 -0.0515,-0.01029c-0.7925,0 -1.4409,0.6587 -1.4409,1.49237c0,0.83367 0.669,1.49237 1.513,1.49237c0.8233,0 1.5129,-0.64841 1.5129,-1.55412c0,-1.48208 -1.41,-2.66568 -3.8904,-2.66568c-3.273,0 -5.6813,2.18194 -5.6813,5.33138c0,3.2626 2.4186,5.3005 5.4548,5.3005c1.8526,0 3.3965,-0.7102 4.1581,-1.8012zM38.4478,0l-4.5697,0.55578v0.47344l0.5249,0.17497c0.5764,0.19555 0.6587,0.33964 0.6587,1.00863v11.56848c0,0.741 -0.1853,0.9571 -1.1836,1.1321v0.5043h5.5989v-0.5043c-0.8954,-0.1647 -1.0292,-0.3499 -1.0292,-1.0704v-6.47379c0.3088,-0.57636 0.9572,-0.96746 1.8012,-0.96746c1.163,0 1.8423,0.68957 1.8423,2.06873v5.37252c0,0.7205 -0.1544,0.916 -1.0293,1.0704v0.5043h5.599v-0.5043c-1.0189,-0.175 -1.1939,-0.3911 -1.1939,-1.1321v-5.50637c0,-2.22312 -1.41,-3.28321 -3.4993,-3.28321c-1.7394,0 -3.0054,0.7925 -3.5406,1.95551z" fill="#fd665e" fill-opacity="1"></path></g><g><title>move</title><path d="M15.17915,19.3461c0.49403,-1.15272 1.74968,-1.9761 3.49935,-1.9761c1.61588,0 2.8304,0.69987 3.2009,1.98639c0.5043,-1.16301 1.832,-1.98639 3.5508,-1.98639c2.0481,0 3.3964,1.09097 3.3964,3.26263v5.52691c0,0.74104 0.175,0.95717 1.1836,1.13214v0.50432h-5.5989v-0.50432c0.8954,-0.16468 1.0292,-0.34994 1.0292,-1.07039v-5.39311c0,-1.36886 -0.6381,-2.04815 -1.7291,-2.04815c-0.8337,0 -1.4512,0.36023 -1.7703,0.91601c0.0515,0.24701 0.0721,0.49402 0.0721,0.7822v5.74305c0,0.72045 0.1338,0.91601 1.0292,1.07039v0.50432h-5.43429v-0.50432c0.89542,-0.15438 1.01893,-0.34994 1.01893,-1.07039v-5.39311c0,-1.36886 -0.61753,-2.04815 -1.69821,-2.04815c-0.83367,0 -1.42033,0.4014 -1.72909,0.96747v6.47379c0,0.72045 0.1338,0.91601 1.02922,1.07039v0.50432h-5.59896v-0.50432c0.99834,-0.17497 1.1836,-0.3911 1.1836,-1.13214v-6.52526c0,-0.66899 -0.08233,-0.81308 -0.6587,-1.00863l-0.5249,-0.16468v-0.47344l4.54915,-0.55578zM30.258,22.72194c0,-3.1597 2.4805,-5.35194 5.7843,-5.35194c3.2935,0 5.7533,2.04815 5.7533,5.26961c0,3.1597 -2.4804,5.36219 -5.7945,5.36219c-3.2832,0 -5.7431,-2.04811 -5.7431,-5.27986zM36.0731,27.32256c1.3895,0 2.1305,-1.72909 2.1305,-4.56974c0,-2.94357 -0.8542,-4.70353 -2.2231,-4.70353c-1.3997,0 -2.1408,1.71879 -2.1408,4.55944c0,2.94357 0.8543,4.71383 2.2334,4.71383zM42.7536,19.76808c-0.4837,-1.22477 -0.7616,-1.51295 -1.5747,-1.68792v-0.51461h6.1856v0.51461c-1.1939,0.15439 -1.3277,0.49403 -0.8542,2.00698l1.6261,4.89909l1.6262,-4.87851c0.4837,-1.53353 0.3499,-1.86288 -0.8131,-2.02756v-0.51461h3.4376v0.51461c-0.8234,0.16468 -1.1116,0.45286 -1.7497,2.1099l-2.9435,7.62654h-1.8526zM56.9268,17.37c2.8509,0 4.5594,1.75997 4.5594,4.31243c0,0.2676 -0.0308,0.5352 -0.0514,0.71016h-6.4121c0.2676,2.67597 1.8012,4.18893 3.8802,4.18893c1.0086,0 1.8732,-0.38081 2.3878,-0.90572l0.0103,0.50432c-0.7514,1.13214 -2.3158,1.82168 -4.2301,1.82168c-3.0671,0 -5.4858,-2.02752 -5.4858,-5.30044c0,-3.12883 2.1305,-5.33136 5.3417,-5.33136zM54.9713,21.50747c0,0.10293 0,0.19556 0.0103,0.29848l3.5199,-0.04117c0.0103,-0.19555 0.0103,-0.41169 0.0103,-0.71016c0,-1.83201 -0.494,-3.00533 -1.585,-3.00533c-1.2454,0 -1.9555,1.24535 -1.9555,3.45817z" fill="#fd665e" fill-opacity="1"></path></g></g></g></svg>