<?xml version="1.0" encoding="UTF-8"?>
<svg id="SVGDoc" width="39" height="48" xmlns="http://www.w3.org/2000/svg" version="1.1" xmlns:xlink="http://www.w3.org/1999/xlink" xmlns:avocode="https://avocode.com/" viewBox="0 0 39 48"><defs><clipPath id="ClipPath1042"><path d="M0,0v0h39v0v48v0h-39v0z" fill="#ffffff"></path></clipPath></defs><desc>Generated with Avocode.</desc><g><g><title>Group 2</title><g><title>Rectangle 6</title><path d="M0,0v0h39v0v48v0h-39v0z" fill-opacity="0" fill="#ffffff" stroke-linejoin="miter" stroke-linecap="butt" stroke-opacity="1" stroke="#000000" stroke-miterlimit="20" stroke-width="8" clip-path="url(&quot;#ClipPath1042&quot;)"></path></g><g><title>$</title><path d="M21.92977,38v-1.2143c-3.1087,-0.1665 -4.92057,-1.7235 -4.92977,-4.2304h3.19147c0.04599,0.8618 0.75418,1.5374 1.7383,1.6452v-3.1533l-1.09449,-0.25457c-2.35451,-0.54839 -3.58695,-1.95853 -3.58695,-4.10311c0,-2.53629 1.7107,-4.1227 4.68144,-4.35772v-1.3318h1.32441v1.34159c2.73161,0.27419 4.46072,1.91935 4.48832,4.25h-3.09033c-0.02759,-0.77362 -0.60702,-1.44931 -1.39799,-1.58641v3.04551l1.09448,0.21544c2.4189,0.49942 3.65134,1.8606 3.65134,4.06397c0,2.5852 -1.69231,4.1716 -4.74582,4.436v1.2339zM23.25418,31.2823v2.9182c1.00251,-0.0784 1.60034,-0.6366 1.60034,-1.4689c0,-0.7541 -0.52425,-1.2339 -1.60034,-1.4493zM21.92977,27.76671v-2.78111c-0.85536,0.05875 -1.45318,0.61693 -1.45318,1.37097c0,0.71486 0.50585,1.20449 1.45318,1.41014z" fill="#fd665e" fill-opacity="1"></path></g></g></g></svg>