<?xml version="1.0" encoding="UTF-8"?>
<svg id="SVGDoc" width="40" height="53" xmlns="http://www.w3.org/2000/svg" version="1.1" xmlns:xlink="http://www.w3.org/1999/xlink" xmlns:avocode="https://avocode.com/" viewBox="0 0 40 53"><defs><clipPath id="ClipPath1060"><path d="M0,17v0l19.5,-17v0l20.5,17v0v36v0h-40v0z" fill="#ffffff"></path></clipPath><clipPath id="ClipPath1067"><path d="M27,24c0,3.866 -3.134,7 -7,7c-3.86599,0 -7,-3.134 -7,-7c0,-3.86599 3.13401,-7 7,-7c3.866,0 7,3.13401 7,7z" fill="#ffffff"></path></clipPath></defs><desc>Generated with Avocode.</desc><g><g><title>Group 3</title><g><title>Rectangle 7</title><path d="M0,17v0l19.5,-17v0l20.5,17v0v36v0h-40v0z" fill-opacity="0" fill="#ffffff" stroke-linejoin="miter" stroke-linecap="butt" stroke-opacity="1" stroke="#000000" stroke-miterlimit="20" stroke-width="8" clip-path="url(&quot;#ClipPath1060&quot;)"></path></g><g><title>Ellipse 1</title><path d="M27,24c0,3.866 -3.134,7 -7,7c-3.86599,0 -7,-3.134 -7,-7c0,-3.86599 3.13401,-7 7,-7c3.866,0 7,3.13401 7,7z" fill-opacity="0" fill="#ffffff" stroke-linejoin="miter" stroke-linecap="butt" stroke-opacity="1" stroke="#fd665e" stroke-miterlimit="20" stroke-width="8" clip-path="url(&quot;#ClipPath1067&quot;)"></path></g></g></g></svg>