<?xml version="1.0" encoding="UTF-8"?>
<svg id="SVGDoc" width="14" height="14" xmlns="http://www.w3.org/2000/svg" version="1.1" xmlns:xlink="http://www.w3.org/1999/xlink" xmlns:avocode="https://avocode.com/" viewBox="0 0 14 14"><defs></defs><desc>Generated with Avocode.</desc><g><g><title>Vector</title><path d="M13.9903,13.0218c0.0134,0.0133 0.024,0.0292 0.0313,0.0467c0.0072,0.0175 0.011,0.0363 0.011,0.0552c0,0.0189 -0.0038,0.0377 -0.011,0.0552c-0.0073,0.0175 -0.0179,0.0334 -0.0313,0.0468l-0.7664,0.7646c-0.0134,0.0134 -0.0293,0.024 -0.0468,0.0313c-0.0175,0.0072 -0.0362,0.011 -0.0551,0.011c-0.019,0 -0.0377,-0.0038 -0.0552,-0.011c-0.0175,-0.0073 -0.0334,-0.0179 -0.0468,-0.0313l-4.56504,-4.56327c-0.91582,0.70667 -2.03379,1.08987 -3.21152,1.08987c-1.40977,0 -2.7334,-0.54846 -3.72832,-1.54514c-0.99492,-0.99492 -1.54512,-2.32031 -1.54512,-3.72832c0,-1.40977 0.54844,-2.7334 1.54512,-3.72832c0.99492,-0.99492 2.32031,-1.54512 3.72832,-1.54512c1.40801,0 2.7334,0.54844 3.72832,1.54512c0.99492,0.99668 1.54514,2.31855 1.54514,3.72832c0,1.17773 -0.3832,2.29746 -1.09163,3.21328zM9.18094,5.24344c0,-1.05117 -0.40957,-2.03906 -1.15313,-2.78438c-0.74355,-0.74531 -1.7332,-1.15312 -2.78437,-1.15312c-1.05117,0 -2.03906,0.40957 -2.78438,1.15312c-0.74355,0.74356 -1.15312,1.73321 -1.15312,2.78438c0,1.05117 0.40957,2.03906 1.15312,2.78437c0.74532,0.74356 1.73321,1.15313 2.78438,1.15313c1.05117,0 2.03906,-0.40957 2.78437,-1.15313c0.74356,-0.74355 1.15313,-1.7332 1.15313,-2.78437z" fill="#585858" fill-opacity="1"></path></g></g></svg>